<?xml version="1.0" encoding="utf-8"?>
<!-- Generator: Adobe Illustrator 24.0.1, SVG Export Plug-In . SVG Version: 6.00 Build 0)  -->
<svg version="1.1" id="Layer_1" xmlns="http://www.w3.org/2000/svg" xmlns:xlink="http://www.w3.org/1999/xlink" x="0px" y="0px"
	 viewBox="0 0 800 800" style="enable-background:new 0 0 800 800;" xml:space="preserve">
<style type="text/css">
	.st0{fill:#181818;}
</style>
<path class="st0" d="M255.1,628.4h-2.2l-8-31.2h-16.4l-8,31.2h-2.2l-7.8-31.2h-16.9l14.1,55.3h20.2l7.8-30.9h2.2l7.7,30.9h20.2
	l14.1-55.3h-16.9L255.1,628.4z M352.8,652.4h16.4v-55.3h-16.4V652.4z M352.5,589.1h17.1v-14.2h-17.1V589.1z M329.9,598.9
	c-3.3-1.9-7-2.9-11.2-2.9c-3.3,0-6.2,0.6-8.8,1.8c-2.6,1.2-4.4,2.6-5.5,4.1h-0.5v-25.5h-16.4v75.9h16.4V622c0-3,0.9-5.5,2.8-7.4
	c1.8-1.9,4.3-2.9,7.3-2.9c3,0,5.5,1,7.3,2.9c1.8,1.9,2.8,4.4,2.8,7.4v30.5h16.4v-33.2c0-4.6-0.9-8.7-2.8-12.2
	C335.7,603.6,333.1,600.9,329.9,598.9z M591.2,175.1c-8.5-13.9-20.2-25.6-34.1-34.1c-24.8-15.2-58.6-15.2-126.1-15.2H369
	c-67.6,0-101.3,0-126.1,15.2c-13.9,8.5-25.6,20.2-34.1,34.1c-15.2,24.8-15.2,58.6-15.2,126.1v20.6c0,48.1,0,72.1,7.9,91.1
	c10.5,25.3,30.6,45.4,55.8,55.8c13.6,5.6,29.9,7.2,55.8,7.7c17.5,0.3,26.3,0.5,33.3,4.5c7,4.1,11.3,11.4,20,26l11.2,18.9
	c10,16.8,34.9,16.8,44.9,0l11.2-18.9c8.7-14.7,13-22,20-26c7-4.1,15.7-4.2,33.3-4.5c25.9-0.4,42.2-2,55.8-7.7
	c25.3-10.5,45.4-30.6,55.8-55.8c7.9-19,7.9-43,7.9-91.1v-20.6C606.4,233.7,606.4,200,591.2,175.1z M431,358H317.5
	c-8.5,0-15.5-6.9-15.5-15.5c0-8.5,6.9-15.5,15.5-15.5H431c8.5,0,15.5,6.9,15.5,15.5C446.4,351.1,439.5,358,431,358z M482.5,285.8
	H317.5c-8.5,0-15.5-6.9-15.5-15.5s6.9-15.5,15.5-15.5h165.1c8.5,0,15.5,6.9,15.5,15.5S491.1,285.8,482.5,285.8z M589.9,598.5
	c-1.7,0.9-3,1.9-3.8,3h-0.5l-1.1-4.3h-14.1v55.3h16.4v-29.7c0-6.7,3.3-10.1,9.9-10.1h9.8v-15.5h-10.5
	C593.6,597.2,591.6,597.6,589.9,598.5z M546.2,599.8c-4.3-2.5-9.1-3.7-14.3-3.7c-5.5,0-10.4,1.2-14.9,3.7
	c-4.4,2.5-7.9,5.9-10.4,10.3c-2.5,4.4-3.8,9.3-3.8,14.7c0,5.4,1.3,10.3,3.8,14.7c2.5,4.4,6,7.8,10.4,10.3c4.4,2.5,9.4,3.7,14.9,3.7
	c5.1,0,9.6-1,13.4-2.9c3.8-2,6.8-4.3,8.9-6.9c2.2-2.7,3.6-5.2,4.3-7.7h-16.5c-0.9,1-2.2,2-3.9,2.9c-1.7,0.9-3.8,1.4-6.3,1.4
	c-3.3,0-6.2-1-8.6-3.1c-2.4-2.1-3.8-4.6-4.2-7.6h40.3c0.4-1.7,0.5-3.5,0.5-5.4c0-5.2-1.2-10-3.7-14.3
	C553.9,605.6,550.5,602.2,546.2,599.8z M519.2,619.7c0.7-3,2.1-5.6,4.3-7.6c2.2-2,5.1-3,8.5-3c3.2,0,5.9,1,8,3
	c2.2,2,3.5,4.6,3.9,7.6H519.2z M482.6,599.7c-3.9-2.4-8.2-3.6-12.9-3.6c-3.6,0-6.8,0.6-9.6,1.8c-2.8,1.2-4.9,2.8-6.2,4.7h-0.5
	l-1.1-5.4h-14.1v77h16.4V648h0.5c1.1,1.4,2.9,2.6,5.6,3.8c2.6,1.2,5.7,1.7,9.1,1.7c4.7,0,9-1.2,12.9-3.6c3.9-2.4,7-5.8,9.3-10.2
	c2.3-4.4,3.5-9.3,3.5-14.9c0-5.6-1.2-10.5-3.5-14.9C489.6,605.5,486.5,602.1,482.6,599.7z M475.5,634.7c-2.3,2.5-5.2,3.7-8.8,3.7
	c-3.5,0-6.5-1.2-8.8-3.7c-2.3-2.5-3.5-5.8-3.5-9.9c0-4.1,1.2-7.4,3.5-9.9c2.3-2.5,5.2-3.7,8.8-3.7c3.5,0,6.5,1.2,8.8,3.7
	c2.3,2.5,3.5,5.7,3.5,9.9C479,628.9,477.8,632.2,475.5,634.7z M409.8,618.8l-8.7-1.3c-4.2-0.7-6.3-2-6.3-4.1c0-1.3,0.7-2.4,2.1-3.4
	c1.4-1,3.4-1.5,6-1.5c2.7,0,4.8,0.5,6.3,1.6c1.6,1.1,2.3,2.3,2.3,3.8h15.8c0-2.7-0.9-5.4-2.8-8.2c-1.9-2.8-4.7-5.1-8.3-6.9
	c-3.7-1.8-8.1-2.8-13.3-2.8c-5.1,0-9.5,0.8-13.2,2.4c-3.7,1.6-6.5,3.7-8.3,6.4c-1.9,2.7-2.8,5.6-2.8,8.8c0,9,6.3,14.5,19,16.5
	l8.2,1.3c2.4,0.4,4,0.9,5,1.7c0.9,0.8,1.4,1.9,1.4,3.3c0,1.3-0.7,2.4-2.1,3.3c-1.4,0.9-3.6,1.4-6.6,1.4c-3,0-5.3-0.6-6.9-1.8
	c-1.6-1.2-2.3-2.5-2.3-4.1h-15.9c0,2.5,0.8,5.1,2.4,7.9c1.6,2.8,4.3,5.3,8.1,7.3c3.8,2.1,8.6,3.1,14.6,3.1c5.4,0,10-0.8,13.7-2.3
	c3.7-1.6,6.5-3.6,8.3-6.3c1.8-2.6,2.8-5.5,2.8-8.7C428.4,626.4,422.2,620.6,409.8,618.8z"/>
</svg>
